<?xml version="1.0" encoding="utf-8"?>
<!-- Generator: Adobe Illustrator 23.1.0, SVG Export Plug-In . SVG Version: 6.00 Build 0)  -->
<svg version="1.1" xmlns="http://www.w3.org/2000/svg" xmlns:xlink="http://www.w3.org/1999/xlink" x="0px" y="0px"
	 viewBox="0 0 750 500" style="enable-background:new 0 0 750 500;" xml:space="preserve">
<style type="text/css">
	.st0{fill:#DBE8F0;}
	.st1{opacity:0.5;}
	.st2{fill:#FFFFFF;}
	.st3{fill:#7B1FA2;}
	.st4{fill:#FFA726;}
	.st5{fill:url(#SVGID_1_);}
	.st6{fill:url(#SVGID_2_);}
	.st7{opacity:0.8;fill:url(#SVGID_3_);}
	.st8{opacity:0.8;fill:url(#SVGID_4_);}
	.st9{opacity:0.8;fill:url(#SVGID_5_);}
	.st10{opacity:0.8;fill:url(#SVGID_6_);}
	.st11{opacity:0.8;fill:url(#SVGID_7_);}
	.st12{opacity:0.8;fill:url(#SVGID_8_);}
	.st13{fill:#CBDFEF;}
	.st14{opacity:0.8;fill:url(#SVGID_9_);}
	.st15{fill:url(#SVGID_10_);}
	.st16{fill:#809297;}
	.st17{fill:url(#XMLID_11_);}
	.st18{fill:#8A9EA2;}
	.st19{fill:url(#XMLID_12_);}
	.st20{fill:#92A7AC;}
	.st21{fill:url(#XMLID_13_);}
	.st22{opacity:0.1;fill:#FFFFFF;}
	.st23{fill:#FDC870;}
	.st24{fill:url(#SVGID_11_);}
	.st25{fill:url(#XMLID_14_);}
	.st26{fill:url(#SVGID_12_);}
	.st27{fill:url(#SVGID_13_);}
	.st28{fill:url(#SVGID_14_);}
	.st29{opacity:0.7;fill:url(#SVGID_15_);}
	.st30{opacity:0.7;fill:url(#SVGID_16_);}
	.st31{fill:url(#SVGID_17_);}
	.st32{opacity:0.8;fill:url(#SVGID_18_);}
	.st33{fill:url(#SVGID_19_);}
	.st34{fill:#FFB300;}
	.st35{fill:#FFA000;}
	.st36{fill:#FFCA28;}
	.st37{opacity:0.7;fill:url(#SVGID_20_);}
	.st38{opacity:0.7;fill:url(#SVGID_21_);}
	.st39{fill:url(#SVGID_22_);}
	.st40{opacity:0.8;fill:url(#SVGID_23_);}
	.st41{fill:url(#SVGID_24_);}
	.st42{fill:#D32F2F;}
	.st43{opacity:0.8;fill:url(#SVGID_25_);}
	.st44{fill:#EF5350;}
	.st45{fill:none;stroke:#FFFFFF;stroke-width:1.0404;stroke-miterlimit:10;}
	.st46{opacity:0.7;fill:url(#SVGID_26_);}
	.st47{opacity:0.7;fill:url(#SVGID_27_);}
	.st48{fill:url(#SVGID_28_);}
	.st49{fill:#25284C;}
	.st50{fill:#111638;}
	.st51{fill:#F5F5F5;}
	.st52{fill:#7B92B9;}
	.st53{fill:#6A7EA2;}
	.st54{fill:none;stroke:#FFFFFF;stroke-width:0.7521;stroke-miterlimit:10;}
	.st55{opacity:0.8;fill:url(#SVGID_29_);}
	.st56{opacity:0.8;fill:url(#SVGID_30_);}
	.st57{opacity:0.8;fill:url(#SVGID_31_);}
	.st58{fill:url(#SVGID_32_);}
	.st59{fill:url(#SVGID_33_);}
	.st60{opacity:0.7;fill:url(#SVGID_34_);}
	.st61{fill:url(#SVGID_35_);}
	.st62{fill:none;stroke:#FFFFFF;stroke-width:1.0404;stroke-linecap:round;stroke-linejoin:round;stroke-miterlimit:10;}
	.st63{fill:#FFEE58;}
	.st64{fill:none;stroke:#FFFFFF;stroke-width:0.5202;stroke-linecap:round;stroke-linejoin:round;stroke-miterlimit:10;}
	.st65{fill:url(#SVGID_36_);}
	.st66{fill:#222221;}
</style>
<g id="Background">
</g>
<g id="Object">
	<g>
		<g>
			<linearGradient id="SVGID_1_" gradientUnits="userSpaceOnUse" x1="404.5046" y1="407.8762" x2="404.5046" y2="98.3252">
				<stop  offset="1.860120e-03" style="stop-color:#AC24B9"/>
				<stop  offset="1" style="stop-color:#2E2142"/>
			</linearGradient>
			<path class="st5" d="M572.53,331.74c-0.49,2.83-1.06,5.64-1.71,8.44c-0.5,2.13-1.04,4.25-1.62,6.35
				c-3.22,11.6-7.8,23.19-14.13,33.44c-6.46,10.49-14.76,19.6-25.32,25.94c-5.68,3.42-11.77,5.89-18.1,7.74h-215.6
				c-20.85-11.32-39.15-31.24-35.17-54.57c3.46-20.3,6.71-40.55-0.41-59.31c-5.18-13.61-15.37-24.8-21.11-38.19
				c-14.21-33.22,3.66-63.3,30.16-81.75c0.96-0.67,1.93-1.32,2.91-1.96c0.23-0.15,0.47-0.3,0.7-0.45c1.08-0.69,2.15-1.41,3.2-2.14
				c2.28-1.59,4.48-3.26,6.64-5.02h0.01c1.62-1.32,3.21-2.67,4.78-4.07c0.37-0.32,0.75-0.65,1.11-0.99
				c2.16-1.94,4.28-3.94,6.37-5.98c1.1-1.07,2.19-2.16,3.28-3.25c8.48-8.51,16.66-17.42,25.62-25.18
				c8.54-7.39,17.79-13.74,28.69-17.7c6.81-2.47,13.81-4.2,20.88-5.18c27.95-3.93,57.03,3.52,79.72,20.9
				c1.11,0.85,2.22,1.73,3.32,2.63c11.73,9.59,22.52,21.82,27.29,35.94c6.01,17.77,14.87,34.92,31.03,45.49
				c13.33,8.71,25.95,14.49,36.57,27.15c3.83,4.56,7.13,9.37,9.94,14.38c2.29,4.09,4.26,8.3,5.92,12.62
				c2.21,5.75,3.87,11.68,5.03,17.73C575.49,300.07,575.25,316.11,572.53,331.74z"/>
			<linearGradient id="SVGID_2_" gradientUnits="userSpaceOnUse" x1="251.5236" y1="404.8142" x2="234.63" y2="298.3846">
				<stop  offset="1.860120e-03" style="stop-color:#AC24B9"/>
				<stop  offset="1" style="stop-color:#2E2142"/>
			</linearGradient>
			<path class="st6" d="M236.96,367.76c-0.33,5.89,0.02,12.09,2.97,17.2c2.48,4.29,8.29,7.58,12.31,4.68
				c3.05-2.2,3.27-6.72,2.25-10.34c-1.02-3.62-2.96-7.02-3.24-10.77c-0.44-5.9,6.55-21.03-3.94-21.71
				C237.85,346.21,237.29,361.94,236.96,367.76z"/>
			<g>
				<linearGradient id="SVGID_3_" gradientUnits="userSpaceOnUse" x1="315.169" y1="407.0533" x2="318.3911" y2="362.8219">
					<stop  offset="0" style="stop-color:#FFFFFF;stop-opacity:0"/>
					<stop  offset="1" style="stop-color:#662D8D"/>
				</linearGradient>
				<ellipse class="st7" cx="316.51" cy="388.64" rx="20.34" ry="8.01"/>
				<linearGradient id="SVGID_4_" gradientUnits="userSpaceOnUse" x1="418.9241" y1="408.1096" x2="422.1462" y2="363.8785">
					<stop  offset="0" style="stop-color:#FFFFFF;stop-opacity:0"/>
					<stop  offset="1" style="stop-color:#662D8D"/>
				</linearGradient>
				<ellipse class="st8" cx="420.27" cy="389.7" rx="20.34" ry="8.01"/>
				<linearGradient id="SVGID_5_" gradientUnits="userSpaceOnUse" x1="426.9839" y1="360.2249" x2="282.8655" y2="358.4673">
					<stop  offset="0" style="stop-color:#FFFFFF;stop-opacity:0"/>
					<stop  offset="1" style="stop-color:#662D8D"/>
				</linearGradient>
				<polygon class="st9" points="303.01,353.37 321.4,353.37 362.28,372.4 356.93,384.45 376.08,384.45 417.66,358.66 
					366.75,340.86 336.5,334.04 				"/>
				<linearGradient id="SVGID_6_" gradientUnits="userSpaceOnUse" x1="385.2514" y1="215.8696" x2="307.3341" y2="303.1602">
					<stop  offset="0" style="stop-color:#FFFFFF;stop-opacity:0"/>
					<stop  offset="1" style="stop-color:#662D8D"/>
				</linearGradient>
				<rect x="306.8" y="214.25" class="st10" width="100.79" height="66.12"/>
				<linearGradient id="SVGID_7_" gradientUnits="userSpaceOnUse" x1="623.9171" y1="346.9119" x2="458.3839" y2="346.9119">
					<stop  offset="0" style="stop-color:#FFFFFF;stop-opacity:0"/>
					<stop  offset="1" style="stop-color:#662D8D"/>
				</linearGradient>
				<path class="st11" d="M572.53,313.85v17.89c-0.49,2.83-1.06,5.64-1.71,8.44c-0.5,2.13-1.04,4.25-1.62,6.35
					c-3.22,11.6-7.8,23.19-14.13,33.44h-52.68v-66.12H572.53z"/>
				<linearGradient id="SVGID_8_" gradientUnits="userSpaceOnUse" x1="599.7018" y1="297.292" x2="423.2988" y2="297.292">
					<stop  offset="0" style="stop-color:#FFFFFF;stop-opacity:0"/>
					<stop  offset="1" style="stop-color:#662D8D"/>
				</linearGradient>
				<path class="st12" d="M572.53,284.75v46.99c-0.49,2.83-1.06,5.64-1.71,8.44H423.84V254.4h137.74c2.29,4.09,4.26,8.3,5.92,12.62
					C569.71,272.77,571.37,278.7,572.53,284.75z"/>
				<g>
					<path class="st13" d="M456.81,319.32v-47.2H351.3v47.2l0,0c0,7.8,5.15,15.59,15.45,21.54c20.6,11.9,54.01,11.9,74.61,0
						C451.66,334.91,456.81,327.11,456.81,319.32z"/>
					<linearGradient id="SVGID_9_" gradientUnits="userSpaceOnUse" x1="396.1858" y1="310.9456" x2="475.5048" y2="310.9456">
						<stop  offset="0" style="stop-color:#FFFFFF;stop-opacity:0"/>
						<stop  offset="1" style="stop-color:#662D8D"/>
					</linearGradient>
					<path class="st14" d="M456.81,319.32v-47.2H351.3v47.2l0,0c0,7.8,5.15,15.59,15.45,21.54c20.6,11.9,54.01,11.9,74.61,0
						C451.66,334.91,456.81,327.11,456.81,319.32z"/>
					<ellipse class="st2" cx="404.06" cy="272.12" rx="52.76" ry="30.46"/>
					<g>
						<linearGradient id="SVGID_10_" gradientUnits="userSpaceOnUse" x1="404.0563" y1="217.266" x2="404.0563" y2="321.7108">
							<stop  offset="1.694780e-03" style="stop-color:#00D4C8"/>
							<stop  offset="1" style="stop-color:#00D2C7;stop-opacity:0"/>
						</linearGradient>
						<ellipse class="st15" cx="404.06" cy="266.2" rx="52.76" ry="30.46"/>
						<g>
							<path id="XMLID_914_" class="st16" d="M416.92,257.1c-0.18,5.5-6.27,9.76-13.58,9.52c-7.32-0.25-13.1-4.91-12.91-10.41
								c0.18-5.5,6.27-9.76,13.58-9.52C411.32,246.94,417.1,251.6,416.92,257.1z"/>
							<linearGradient id="XMLID_11_" gradientUnits="userSpaceOnUse" x1="390.4192" y1="256.6528" x2="416.9236" y2="256.6528">
								<stop  offset="3.946110e-03" style="stop-color:#FFFFFF;stop-opacity:0"/>
								<stop  offset="1" style="stop-color:#92A7AC"/>
							</linearGradient>
							<path id="XMLID_913_" class="st17" d="M416.92,257.1c-0.18,5.5-6.27,9.76-13.58,9.52c-7.32-0.25-13.1-4.91-12.91-10.41
								c0.18-5.5,6.27-9.76,13.58-9.52C411.32,246.94,417.1,251.6,416.92,257.1z"/>
							<path id="XMLID_912_" class="st18" d="M425.7,245.24c-0.23,6.71-10.09,11.82-22.03,11.42c-11.94-0.4-21.44-6.16-21.21-12.87
								c0.23-6.71,10.09-11.82,22.03-11.42C416.43,232.77,425.93,238.53,425.7,245.24z"/>
							<linearGradient id="XMLID_12_" gradientUnits="userSpaceOnUse" x1="396.6654" y1="244.5091" x2="421.7275" y2="244.5091">
								<stop  offset="3.946110e-03" style="stop-color:#FFFFFF;stop-opacity:0"/>
								<stop  offset="1" style="stop-color:#92A7AC"/>
							</linearGradient>
							<path id="XMLID_907_" class="st19" d="M425.7,245.24c-0.23,6.71-10.09,11.82-22.03,11.42c-11.94-0.4-21.44-6.16-21.21-12.87
								c0.23-6.71,10.09-11.82,22.03-11.42C416.43,232.77,425.93,238.53,425.7,245.24z"/>
							
								<ellipse id="XMLID_906_" transform="matrix(0.0336 -0.9994 0.9994 0.0336 153.8792 633.1346)" class="st20" cx="404.33" cy="237" rx="12.15" ry="21.63"/>
							<linearGradient id="XMLID_13_" gradientUnits="userSpaceOnUse" x1="392.7038" y1="236.9966" x2="422.8602" y2="236.9966">
								<stop  offset="3.946110e-03" style="stop-color:#FFFFFF;stop-opacity:0"/>
								<stop  offset="1" style="stop-color:#92A7AC"/>
							</linearGradient>
							<path id="XMLID_905_" class="st21" d="M425.95,237.72c-0.23,6.71-10.09,11.82-22.03,11.42c-11.94-0.4-21.44-6.16-21.21-12.87
								c0.23-6.71,10.09-11.82,22.03-11.42C416.68,225.25,426.18,231.02,425.95,237.72z"/>
							<path id="XMLID_904_" class="st22" d="M385.97,239.76c-0.6,0.3-1.46-0.22-1.92-1.15c-0.46-0.93-0.36-1.93,0.24-2.22
								c0.6-0.3,1.46,0.22,1.92,1.15C386.67,238.47,386.56,239.46,385.97,239.76z"/>
							<path id="XMLID_897_" class="st22" d="M387.13,241.56c-0.39,0.2-0.85,0.08-1.02-0.26c-0.17-0.34,0.01-0.78,0.4-0.98
								c0.39-0.2,0.85-0.08,1.02,0.26C387.71,240.93,387.53,241.36,387.13,241.56z"/>
							<path id="XMLID_896_" class="st22" d="M386.04,247.85c-0.6,0.3-1.46-0.22-1.92-1.15c-0.46-0.93-0.36-1.93,0.24-2.22
								c0.6-0.3,1.46,0.22,1.92,1.15C386.74,246.55,386.63,247.55,386.04,247.85z"/>
							<path id="XMLID_895_" class="st22" d="M387.2,249.65c-0.39,0.2-0.85,0.08-1.02-0.26c-0.17-0.34,0.01-0.78,0.4-0.98
								c0.39-0.2,0.85-0.08,1.02,0.26C387.78,249.01,387.6,249.45,387.2,249.65z"/>
							<path id="XMLID_894_" class="st23" d="M443.41,186.3c0.14-21.8-17.39-36.3-39.12-36.43c-21.73-0.14-39.44,14.13-39.58,35.94
								c-0.14,21.36,10.78,24.59,16.35,35.57c1.74,3.44,1.1,6.49,1.1,6.49c-0.05,8.29,8.97,12.99,21.55,13.07
								c12.58,0.08,21.66-4.5,21.72-12.79c0,0-0.6-3.06,1.19-6.47C432.32,210.75,443.27,207.66,443.41,186.3z"/>
							<linearGradient id="SVGID_11_" gradientUnits="userSpaceOnUse" x1="394.942" y1="181.1732" x2="429.0677" y2="221.5553">
								<stop  offset="3.946110e-03" style="stop-color:#FFFFFF;stop-opacity:0"/>
								<stop  offset="1" style="stop-color:#FDC870"/>
							</linearGradient>
							<path class="st24" d="M443.41,186.3c-0.01,1.33-0.06,2.59-0.15,3.8c-0.07,0.91-0.16,1.8-0.28,2.64
								c-0.57,4.33-1.69,7.74-3.11,10.61c-0.03,0.06-0.06,0.11-0.08,0.17c-3.61,7.12-9.12,10.89-12.77,17.4
								c-0.15,0.24-0.28,0.5-0.41,0.75c-1.79,3.41-1.19,6.47-1.19,6.47c0,0.33-0.02,0.65-0.06,0.97c-0.01,0.15-0.02,0.29-0.05,0.43
								c0,0.07-0.02,0.15-0.03,0.22c-0.02,0.14-0.04,0.28-0.07,0.41c-0.02,0.14-0.05,0.28-0.09,0.41c-0.04,0.19-0.1,0.38-0.15,0.56
								c0,0.02-0.01,0.03-0.02,0.05c-0.16,0.52-0.37,1.02-0.62,1.5c-0.01,0.03-0.02,0.06-0.04,0.09c-2.15,4.1-7.21,6.74-13.96,7.72
								c-2.06,0.31-4.28,0.46-6.62,0.44c-12.58-0.08-21.61-4.77-21.56-13.07c0,0,0.64-3.05-1.11-6.49
								c-5.57-10.98-16.48-14.22-16.35-35.57c0.14-21.8,17.85-36.07,39.58-35.94C426.02,150.01,443.55,164.5,443.41,186.3z"/>
							
								<linearGradient id="XMLID_14_" gradientUnits="userSpaceOnUse" x1="434.3789" y1="228.0365" x2="434.3789" y2="247.7285" gradientTransform="matrix(0.9996 -0.0273 0.0273 0.9996 -37.067 -40.0028)">
								<stop  offset="3.946110e-03" style="stop-color:#FFFFFF;stop-opacity:0"/>
								<stop  offset="1" style="stop-color:#FDC870"/>
							</linearGradient>
							<path id="XMLID_828_" class="st25" d="M416.51,205.17c-0.69-4.14-5.34-9.62-8.75-4.23c-2.36,3.73-2.11,8.95-2.11,13.31v0.27
								c-0.39,0.03-0.78,0.05-1.16,0.06c-0.12,0-0.22,0.02-0.31,0.05c-0.09-0.03-0.19-0.05-0.31-0.06
								c-0.38-0.01-0.76-0.03-1.15-0.07v-0.25c0.06-3.77,0.07-7.63-1.07-11.22c-1.79-5.67-7.03-5.42-9.1-0.09
								c-1.97,5.08-0.13,8.99,3.35,11.31c1.37,0.91,3,1.58,4.75,1.97c0,0.1-0.01,0.2-0.01,0.29c-0.02,2.81-0.03,5.62-0.05,8.43
								c-0.02,2.5-0.03,5-0.05,7.5c-0.01,1.13-0.01,2.25-0.02,3.37c-0.01,1.67-0.02,3.33-0.03,4.99c0.67,0.05,1.36,0.09,2.05,0.11
								c0.01-1.72,0.02-3.43,0.03-5.15c0.01-1.14,0.02-2.27,0.03-3.41c0.01-2.5,0.03-5.01,0.05-7.51c0.01-2.76,0.03-5.53,0.05-8.29
								c0.38,0.04,0.77,0.07,1.16,0.08c0.11,0,0.21-0.01,0.31-0.04c0.09,0.03,0.19,0.05,0.3,0.04c0.39,0,0.78-0.03,1.17-0.06
								c-0.02,2.77-0.04,5.55-0.05,8.32c-0.02,2.51-0.04,5.01-0.05,7.52c-0.01,1.12-0.02,2.23-0.02,3.35
								c-0.01,0.26-0.01,0.53-0.01,0.79c-0.01,1.45-0.02,2.89-0.03,4.35v0.01c0.01,0,0.01,0,0.02,0c0.01,0,0.01,0,0.02,0
								c0.02,0,0.03,0,0.05-0.01c0.01,0.01,0.02,0,0.03,0h0.14c0.23-0.01,0.45-0.02,0.67-0.03c0.2-0.01,0.39-0.02,0.58-0.03
								c0.19-0.01,0.37-0.03,0.55-0.04c0.01-1.66,0.02-3.33,0.03-4.99c0-0.49,0.01-0.98,0.01-1.47c0-0.58,0.01-1.17,0.01-1.75
								c0.02-2.51,0.03-5.02,0.05-7.53c0.01-2.83,0.03-5.67,0.05-8.5v-0.27C413.14,215.22,417.58,211.61,416.51,205.17z
								 M393.85,206.99c-0.02-2.27,2.3-9.07,5.14-5.07c2.19,3.09,1.89,8.12,1.72,12.28C397.04,213.43,393.89,211.35,393.85,206.99z
								 M407.66,214.25c-0.12-4.17-0.36-9.2,1.87-12.26c2.9-3.97,5.13,2.86,5.08,5.13C414.51,211.48,411.33,213.52,407.66,214.25z"
								/>
							
								<linearGradient id="SVGID_12_" gradientUnits="userSpaceOnUse" x1="447.442" y1="244.0775" x2="417.2887" y2="193.4198" gradientTransform="matrix(0.9996 -0.0273 0.0273 0.9996 -37.067 -40.0028)">
								<stop  offset="3.946110e-03" style="stop-color:#FFFFFF;stop-opacity:0"/>
								<stop  offset="1" style="stop-color:#FFFFFF"/>
							</linearGradient>
							<path class="st26" d="M423,180.9c-10.6,6.51-28.05,6.99-38.98,1.06c-10.93-5.92-11.21-16-0.61-22.51
								c10.6-6.51,28.05-6.99,38.98-1.06C433.32,164.32,433.6,174.39,423,180.9z"/>
							<linearGradient id="SVGID_13_" gradientUnits="userSpaceOnUse" x1="383.2372" y1="206.4686" x2="350.6495" y2="190.6872">
								<stop  offset="3.946110e-03" style="stop-color:#FFFFFF;stop-opacity:0"/>
								<stop  offset="1" style="stop-color:#FFFFFF"/>
							</linearGradient>
							<path class="st27" d="M370.16,197.25c1.84,5.33,5.27,10.23,8.91,14.34c3.8,4.31,8.37,8.58,9.15,14.27
								c0.11,0.79,0.15,1.62,0.54,2.32c0.39,0.7,1.27,1.21,2,0.88c0.37-0.17,0.63-0.52,0.84-0.87c1.55-2.5,2.1-5.6,1.49-8.48
								c-0.98-4.63-4.56-7.99-7.55-11.42c-2.91-3.33-5.39-7.6-6.32-11.96c-0.58-2.74-0.76-5.55-1.35-8.29
								c-0.28-1.31-0.67-2.62-1.46-3.7c-0.79-1.08-2.05-1.89-3.38-1.85c-1.42,0.05-2.68,1.06-3.36,2.31
								c-0.68,1.25-0.85,2.71-0.88,4.13C368.71,191.79,369.24,194.57,370.16,197.25z"/>
							<linearGradient id="SVGID_14_" gradientUnits="userSpaceOnUse" x1="399.2888" y1="240.723" x2="427.0574" y2="225.7706">
								<stop  offset="3.946110e-03" style="stop-color:#FFFFFF;stop-opacity:0"/>
								<stop  offset="1" style="stop-color:#FDC870"/>
							</linearGradient>
							<path class="st28" d="M443.41,186.3c0,1.32-0.05,2.58-0.15,3.8c-0.07,0.91-0.16,1.8-0.28,2.64
								c-0.58,4.17-1.7,7.63-3.11,10.61c-0.03,0.06-0.06,0.11-0.08,0.17c-3.61,7.12-9.12,10.89-12.77,17.4
								c-0.15,0.24-0.28,0.5-0.41,0.75c-1.79,3.41-1.19,6.47-1.19,6.47c0,0.33-0.02,0.65-0.06,0.97c-0.01,0.15-0.02,0.29-0.05,0.43
								c0,0.07-0.02,0.15-0.03,0.22c-0.02,0.14-0.04,0.28-0.07,0.41c-0.02,0.14-0.05,0.28-0.09,0.41c-0.04,0.19-0.1,0.38-0.15,0.56
								c0,0.02-0.01,0.03-0.02,0.05c-0.16,0.52-0.37,1.02-0.62,1.5c-0.01,0.03-0.02,0.06-0.04,0.09c1.12,1.54,1.72,3.21,1.67,4.95
								c-0.05,1.31-0.46,2.56-1.19,3.72c0.64,1.2,0.98,2.48,0.93,3.79c-0.13,4.01-3.7,7.44-9.1,9.47c0.23,0.77,0.34,1.57,0.32,2.39
								c-0.19,5.5-6.27,9.76-13.58,9.52c-0.41-0.02-0.82-0.04-1.23-0.09c1.59-1.91,3.38-3.74,4.29-5.54
								c3.16-6.28,3.56-13.59,3.93-20.48c0.01-0.13,0.02-0.26,0.02-0.39c0.32-5.81,0.63-11.62,0.95-17.42
								c0.03-0.58,0.07-1.17,0.29-1.7c0.68-1.59,2.7-1.94,4.38-2.34C434.36,214.33,441.84,200.69,443.41,186.3z"/>
							<path class="st23" d="M441.77,144.51c0,1.94-1.57,3.52-3.51,3.52c-1.94,0-3.52-1.57-3.52-3.52c0-1.94,1.57-3.51,3.52-3.51
								C440.2,140.99,441.77,142.57,441.77,144.51z"/>
							<path class="st23" d="M441.77,241.66c0,1.94-1.57,3.52-3.51,3.52c-1.94,0-3.52-1.57-3.52-3.52s1.57-3.52,3.52-3.52
								C440.2,238.14,441.77,239.71,441.77,241.66z"/>
							<circle class="st23" cx="374.58" cy="226.46" r="3.52"/>
							<circle class="st23" cx="445.63" cy="134.12" r="2.22"/>
							<circle class="st23" cx="441.77" cy="221.78" r="2.22"/>
							<circle class="st23" cx="380.31" cy="132.82" r="2.22"/>
							<circle class="st23" cx="447.84" cy="249.16" r="2.22"/>
							<circle class="st23" cx="368.77" cy="260.54" r="2.22"/>
						</g>
						<g>
							<linearGradient id="SVGID_15_" gradientUnits="userSpaceOnUse" x1="318.4636" y1="214.7416" x2="412.0009" y2="214.7416">
								<stop  offset="1.694780e-03" style="stop-color:#00D4C8"/>
								<stop  offset="1" style="stop-color:#00D2C7;stop-opacity:0"/>
							</linearGradient>
							<path class="st29" d="M456.81,266.2V132.82c0,7.8-5.15,15.59-15.45,21.54c-20.6,11.9-54.01,11.9-74.61,0
								c-10.3-5.95-15.45-13.74-15.45-21.54V266.2l0,0c0,7.8,5.15,15.59,15.45,21.54c20.6,11.9,54.01,11.9,74.61,0
								C451.66,281.79,456.81,274,456.81,266.2z"/>
							<linearGradient id="SVGID_16_" gradientUnits="userSpaceOnUse" x1="478.3994" y1="214.7416" x2="412.7429" y2="214.7416">
								<stop  offset="1.694780e-03" style="stop-color:#00D4C8"/>
								<stop  offset="1" style="stop-color:#00D2C7;stop-opacity:0"/>
							</linearGradient>
							<path class="st30" d="M456.81,266.2V132.82c0,7.8-5.15,15.59-15.45,21.54c-20.6,11.9-54.01,11.9-74.61,0
								c-10.3-5.95-15.45-13.74-15.45-21.54V266.2l0,0c0,7.8,5.15,15.59,15.45,21.54c20.6,11.9,54.01,11.9,74.61,0
								C451.66,281.79,456.81,274,456.81,266.2z"/>
							<linearGradient id="SVGID_17_" gradientUnits="userSpaceOnUse" x1="404.0563" y1="83.8885" x2="404.0563" y2="188.3333">
								<stop  offset="1.694780e-03" style="stop-color:#00D4C8"/>
								<stop  offset="1" style="stop-color:#00D2C7;stop-opacity:0"/>
							</linearGradient>
							<ellipse class="st31" cx="404.06" cy="132.82" rx="52.76" ry="30.46"/>
						</g>
					</g>
					<path class="st2" d="M359.2,217.97L359.2,217.97c-2.23-1.28-3.6-3.66-3.6-6.23v-48.5c0-1.07,1.15-1.73,2.08-1.2l0,0
						c2.28,1.32,3.69,3.75,3.69,6.39v48.29C361.37,217.83,360.16,218.53,359.2,217.97z"/>
					<path class="st2" d="M359.2,239.79L359.2,239.79c-2.23-1.28-3.6-3.66-3.6-6.23v-6.89c0-1.07,1.15-1.73,2.08-1.2l0,0
						c2.28,1.32,3.69,3.75,3.69,6.39v6.68C361.37,239.65,360.16,240.35,359.2,239.79z"/>
				</g>
				<g>
					<path class="st13" d="M538.49,359.5v-31.92h-71.34v31.92l0,0c0,5.27,3.48,10.54,10.45,14.56c13.93,8.04,36.52,8.04,50.45,0
						C535.01,370.04,538.49,364.77,538.49,359.5z"/>
					<linearGradient id="SVGID_18_" gradientUnits="userSpaceOnUse" x1="497.4999" y1="353.8393" x2="551.1306" y2="353.8393">
						<stop  offset="0" style="stop-color:#FFFFFF;stop-opacity:0"/>
						<stop  offset="1" style="stop-color:#662D8D"/>
					</linearGradient>
					<path class="st32" d="M538.49,359.5v-31.92h-71.34v31.92l0,0c0,5.27,3.48,10.54,10.45,14.56c13.93,8.04,36.52,8.04,50.45,0
						C535.01,370.04,538.49,364.77,538.49,359.5z"/>
					<ellipse class="st2" cx="502.82" cy="327.58" rx="35.67" ry="20.59"/>
					<g>
						<linearGradient id="SVGID_19_" gradientUnits="userSpaceOnUse" x1="502.8215" y1="290.4989" x2="502.8215" y2="361.1181">
							<stop  offset="1.694780e-03" style="stop-color:#00D4C8"/>
							<stop  offset="1" style="stop-color:#00D2C7;stop-opacity:0"/>
						</linearGradient>
						<ellipse class="st33" cx="502.82" cy="323.59" rx="35.67" ry="20.59"/>
						<g>
							<path class="st23" d="M528.42,266.2c0,1.31-1.06,2.38-2.38,2.38s-2.38-1.06-2.38-2.38c0-1.31,1.06-2.38,2.38-2.38
								S528.42,264.89,528.42,266.2z"/>
							<circle class="st23" cx="523.67" cy="317.38" r="2.38"/>
							<path class="st23" d="M485.27,299.09c0,1.31-1.06,2.38-2.38,2.38s-2.38-1.06-2.38-2.38c0-1.31,1.06-2.38,2.38-2.38
								S485.27,297.78,485.27,299.09z"/>
							<path class="st23" d="M522.79,256.15c0,0.83-0.67,1.5-1.5,1.5c-0.83,0-1.5-0.67-1.5-1.5s0.67-1.5,1.5-1.5
								C522.12,254.65,522.79,255.32,522.79,256.15z"/>
							<path class="st23" d="M516.11,323.59c0,0.83-0.67,1.5-1.5,1.5c-0.83,0-1.5-0.67-1.5-1.5s0.67-1.5,1.5-1.5
								C515.43,322.09,516.11,322.76,516.11,323.59z"/>
							<path class="st23" d="M484.12,254c0,0.83-0.67,1.5-1.5,1.5s-1.5-0.67-1.5-1.5s0.67-1.5,1.5-1.5S484.12,253.17,484.12,254z"/>
							<path class="st23" d="M533.93,298.02c0,0.83-0.67,1.5-1.5,1.5c-0.83,0-1.5-0.67-1.5-1.5s0.67-1.5,1.5-1.5
								C533.26,296.52,533.93,297.2,533.93,298.02z"/>
							<path class="st23" d="M480.46,319.76c0,0.83-0.67,1.5-1.5,1.5s-1.5-0.67-1.5-1.5s0.67-1.5,1.5-1.5
								S480.46,318.93,480.46,319.76z"/>
							<g>
								<path class="st34" d="M525.2,292.27c0,0.11,0,0.23-0.01,0.34c-0.01,1.41-0.14,2.71-0.37,3.91
									c-0.14,0.73-0.32,1.42-0.54,2.07c-0.91,2.77-2.47,4.85-4.49,6.13l0.01,0.01l-0.18,0.11c-0.11,0.05-0.22,0.12-0.34,0.19
									l-5.51,3.2l-1.24-2.14c-2.15-0.3-4.48-1.1-6.93-2.52c-10.83-6.24-19.59-21.45-19.59-33.94c0-1.27,0.1-2.45,0.28-3.55
									c0.11-0.7,0.26-1.38,0.43-2.01c0.15-0.52,0.32-1.02,0.5-1.5l-1.3-2.23l5.57-3.21c0.19-0.11,0.37-0.22,0.56-0.32l0.3-0.18
									l0.01,0.03c2.26-1.09,5.01-1.31,8.07-0.51c0.63,0.17,1.29,0.37,1.96,0.63c1.05,0.4,2.12,0.91,3.21,1.54
									c0.08,0.04,0.17,0.1,0.25,0.15c0.48,0.28,0.96,0.59,1.45,0.92c0.94,0.62,1.87,1.32,2.77,2.09c0.4,0.34,0.81,0.69,1.2,1.06
									c0.8,0.73,1.57,1.52,2.33,2.34c0.34,0.37,0.69,0.77,1.02,1.17c0.7,0.81,1.36,1.65,2.01,2.52c0.29,0.41,0.59,0.83,0.87,1.25
									c0.61,0.87,1.18,1.78,1.72,2.7c0.26,0.44,0.52,0.88,0.76,1.32c0.52,0.94,1.01,1.89,1.45,2.85c0.22,0.47,0.43,0.92,0.62,1.39
									c0.43,1.01,0.81,2.01,1.16,3.02c0.18,0.5,0.33,0.99,0.48,1.49c0.33,1.07,0.61,2.15,0.81,3.21c0.12,0.52,0.22,1.06,0.3,1.58
									c0.19,1.17,0.32,2.33,0.37,3.47C525.19,291.35,525.2,291.81,525.2,292.27z"/>
								<g>
									<path class="st35" d="M502.39,256.78l-16.1,9.3l-1.31,0.76l-0.4-1.53l2.14-1.24l13.72-7.92
										C501.06,256.31,501.73,256.52,502.39,256.78z"/>
									<path class="st35" d="M507.29,259.4l-19.52,11.27l-0.4-1.53l18.47-10.66C506.33,258.75,506.81,259.07,507.29,259.4z"/>
									<path class="st35" d="M511.26,262.56l-20.69,11.94l-0.39-1.53l19.88-11.47C510.46,261.84,510.87,262.18,511.26,262.56z"/>
									<path class="st35" d="M514.61,266.07l-21.23,12.25l-0.4-1.53l20.61-11.89C513.93,265.27,514.28,265.67,514.61,266.07z"/>
									<path class="st35" d="M517.48,269.84l-21.31,12.3l-0.39-1.53l20.83-12.03C516.91,269,517.21,269.42,517.48,269.84z"/>
									<path class="st35" d="M519.96,273.86l-20.98,12.11l-0.4-1.53l20.62-11.9C519.47,272.98,519.73,273.42,519.96,273.86z"/>
									<path class="st35" d="M522.03,278.11l-20.25,11.7l-0.4-1.53l20.03-11.56C521.63,277.18,521.84,277.64,522.03,278.11z"/>
									<path class="st35" d="M523.67,282.61l-19.09,11.02l-0.39-1.53l19-10.98C523.37,281.62,523.52,282.12,523.67,282.61z"/>
									<path class="st35" d="M524.79,287.41l-17.4,10.06l-0.4-1.53l17.49-10.11C524.61,286.35,524.7,286.88,524.79,287.41z"/>
									<path class="st35" d="M525.2,292.27c0,0.11,0,0.23-0.01,0.34l-15,8.66l-0.4-1.53l15.37-8.87
										C525.19,291.35,525.2,291.81,525.2,292.27z"/>
									<path class="st35" d="M524.81,296.53c-0.14,0.73-0.32,1.42-0.54,2.07l-11.3,6.52l-0.39-1.53L524.81,296.53z"/>
								</g>
								
									<ellipse transform="matrix(0.866 -0.5 0.5 0.866 -75.0883 288.0944)" class="st36" cx="500.04" cy="284.16" rx="16" ry="27.71"/>
								<path class="st34" d="M503.62,268.55c-0.68,0.01-1.37,0.01-2.05,0c0.74,0.63,1.47,1.31,2.16,2.04l1.22-0.71
									C504.52,269.42,504.07,268.97,503.62,268.55z M486.28,266.08c-0.01,0.04-0.01,0.09-0.02,0.13c0.15,0.04,0.29,0.08,0.43,0.12
									c0.16-0.29,0.35-0.55,0.54-0.8L486.28,266.08z M503.62,268.55c-0.68,0.01-1.37,0.01-2.05,0c0.74,0.63,1.47,1.31,2.16,2.04
									l1.22-0.71C504.52,269.42,504.07,268.97,503.62,268.55z M486.26,266.21c0.15,0.04,0.29,0.08,0.43,0.12
									c0.16-0.29,0.35-0.55,0.54-0.8l-0.95,0.55C486.27,266.12,486.27,266.17,486.26,266.21z M516,292.48
									c-0.06-0.54-0.14-1.08-0.23-1.62c-0.19-1.08-0.44-2.16-0.75-3.26c-0.14-0.5-0.29-1-0.45-1.5c-0.33-1.01-0.71-2.03-1.13-3.03
									c-0.19-0.47-0.4-0.95-0.61-1.41c-0.44-0.97-0.92-1.93-1.43-2.86c-0.25-0.45-0.5-0.89-0.76-1.32
									c-0.54-0.92-1.12-1.82-1.73-2.69c-0.28-0.42-0.58-0.83-0.89-1.24c-0.64-0.88-1.32-1.72-2.02-2.52
									c-0.35-0.4-0.7-0.78-1.05-1.15c-0.43-0.46-0.88-0.91-1.33-1.33c-0.35-0.34-0.71-0.66-1.07-0.97
									c-0.41-0.37-0.82-0.71-1.24-1.04c-0.96-0.75-1.94-1.42-2.93-1.99c-0.02-0.02-0.04-0.03-0.06-0.04
									c-0.52-0.3-1.03-0.57-1.54-0.8c-1.44-0.68-2.84-1.13-4.14-1.3c-0.46-0.08-0.91-0.11-1.35-0.11c-0.7,0-1.33,0.08-1.91,0.23
									c-1.07,0.28-1.94,0.79-2.64,1.45l-0.17,0.17l-0.01,0.01c-0.5,0.51-0.91,1.1-1.24,1.74c-0.14,0.26-0.26,0.54-0.38,0.81v0.01
									c-0.89,2.17-1.05,4.62-1.05,6.13c0,10.71,7.5,24.16,16.65,30.18c0.4,0.28,0.81,0.53,1.22,0.77
									c2.51,1.45,4.94,2.22,7.03,2.22c0.74,0,1.42-0.09,2.02-0.26c0.8-0.22,1.49-0.58,2.07-1.04c0.3-0.22,0.57-0.47,0.81-0.75
									c0.46-0.5,0.83-1.07,1.14-1.68v-0.01c0.7-1.4,1.05-2.98,1.22-4.39c0.08-0.66,0.12-1.29,0.13-1.83
									c0.01-0.21,0.01-0.41,0.01-0.59C516.19,294.49,516.13,293.49,516,292.48z M514.52,298.77c-0.35,1.83-1.08,3.78-2.6,4.91
									c-0.8,0.59-1.83,0.96-3.13,0.96c-0.45,0-0.91-0.04-1.4-0.12h-0.01c-1.31-0.22-2.72-0.74-4.21-1.53h-0.02
									c-0.23-0.12-0.47-0.24-0.7-0.38c-9.32-5.38-17.19-19.01-17.19-29.76c0-1.3,0.13-3.41,0.84-5.28
									c0.16-0.43,0.36-0.85,0.59-1.24c0.16-0.29,0.35-0.55,0.54-0.8l0.01-0.01c0.73-0.89,1.72-1.55,3.07-1.77h0.01
									c0.3-0.04,0.62-0.07,0.97-0.07c1.21,0,2.57,0.3,4.01,0.88c0.55,0.22,1.11,0.49,1.68,0.79c0.22,0.11,0.43,0.23,0.65,0.36
									c0.81,0.47,1.6,0.99,2.38,1.58c0.43,0.32,0.86,0.66,1.28,1.02c0.1,0.07,0.18,0.14,0.27,0.24h0.01
									c0.74,0.63,1.47,1.31,2.16,2.04c0.37,0.37,0.72,0.75,1.06,1.14c0.71,0.79,1.39,1.63,2.05,2.5c0.3,0.4,0.6,0.82,0.89,1.24
									c0.61,0.87,1.19,1.77,1.73,2.69c0.26,0.43,0.52,0.87,0.76,1.32c0.51,0.94,0.99,1.9,1.42,2.87c0.22,0.46,0.42,0.93,0.61,1.4
									c0.42,1.01,0.79,2.03,1.1,3.05v0.01c0.17,0.51,0.31,1,0.45,1.5c0.29,1.1,0.53,2.2,0.69,3.28c0.09,0.55,0.16,1.1,0.21,1.64
									c0.07,0.76,0.11,1.51,0.11,2.24c0,0.4-0.01,0.88-0.05,1.41C514.72,297.47,514.64,298.11,514.52,298.77z M486.28,266.08
									c-0.01,0.04-0.01,0.09-0.02,0.13c0.15,0.04,0.29,0.08,0.43,0.12c0.16-0.29,0.35-0.55,0.54-0.8L486.28,266.08z
									 M503.62,268.55c-0.68,0.01-1.37,0.01-2.05,0c0.74,0.63,1.47,1.31,2.16,2.04l1.22-0.71
									C504.52,269.42,504.07,268.97,503.62,268.55z"/>
								<g>
									<path class="st34" d="M505.5,287.65c-0.2-0.47-0.44-0.92-0.71-1.35c-0.57-0.91-1.29-1.74-2.08-2.48
										c-0.4-0.37-0.81-0.73-1.23-1.05c-0.31-0.25-0.62-0.48-0.93-0.7c-0.75-0.52-1.36-0.96-1.76-1.44
										c-0.32-0.38-0.5-0.78-0.5-1.26c0-0.08,0.01-0.16,0.03-0.22c0.07-0.27,0.29-0.37,0.59-0.34c0.33,0.02,0.78,0.2,1.23,0.46
										c0.16,0.09,0.32,0.19,0.48,0.3c0.9,0.57,1.72,1.29,2.46,2.28c0.09,0.11,0.17,0.22,0.25,0.34l1.51-1.36l0.02-0.02h0.01
										l0.37-0.33c-0.63-0.93-1.28-1.73-1.98-2.43c-0.38-0.38-0.78-0.73-1.19-1.06c-0.12-0.1-0.25-0.2-0.37-0.29v-2l-1.03-0.59
										l-1.53-0.88l-0.72-0.42v2.05c-0.53-0.19-1.04-0.31-1.5-0.35h-0.01c-1.08-0.08-1.92,0.3-2.28,1.32
										c-0.13,0.36-0.2,0.79-0.2,1.31c0,0.19,0.01,0.37,0.02,0.55c0.11,1.75,0.75,3.16,1.7,4.38l0.01,0.01
										c0.01,0.02,0.02,0.04,0.03,0.05c0.67,0.85,1.49,1.61,2.39,2.31c0.43,0.34,0.89,0.67,1.35,0.98
										c0.02,0.02,0.03,0.03,0.05,0.04c1.25,0.85,2,1.65,2.2,2.35c0.06,0.14,0.08,0.27,0.08,0.4c0,0.49-0.27,0.71-0.72,0.68
										c-0.37-0.01-0.85-0.19-1.42-0.52c-1.15-0.66-2.65-1.8-4-4.08l-2.12,1.58c1.42,2.58,2.78,4.06,4.42,5.23v2.12l3.28,1.89
										v-2.18c1.05,0.4,2.03,0.54,2.79,0.33c0.86-0.24,1.44-0.94,1.56-2.23v-0.01c0.02-0.17,0.03-0.35,0.03-0.54
										C506.08,289.48,505.87,288.53,505.5,287.65z"/>
								</g>
							</g>
						</g>
						<g>
							<linearGradient id="SVGID_20_" gradientUnits="userSpaceOnUse" x1="444.9489" y1="296.0715" x2="508.1931" y2="296.0715">
								<stop  offset="1.694780e-03" style="stop-color:#00D4C8"/>
								<stop  offset="1" style="stop-color:#00D2C7;stop-opacity:0"/>
							</linearGradient>
							<path class="st37" d="M538.49,323.58v-75.62c0,5.27-3.48,10.54-10.45,14.56c-13.93,8.04-36.52,8.04-50.45,0
								c-6.97-4.02-10.45-9.29-10.45-14.56v75.62l0,0c0,5.27,3.48,10.54,10.45,14.56c13.93,8.04,36.52,8.04,50.45,0
								C535.01,334.13,538.49,328.86,538.49,323.58z"/>
							<linearGradient id="SVGID_21_" gradientUnits="userSpaceOnUse" x1="553.0877" y1="296.0715" x2="508.6948" y2="296.0715">
								<stop  offset="1.694780e-03" style="stop-color:#00D4C8"/>
								<stop  offset="1" style="stop-color:#00D2C7;stop-opacity:0"/>
							</linearGradient>
							<path class="st38" d="M538.49,323.58v-75.62c0,5.27-3.48,10.54-10.45,14.56c-13.93,8.04-36.52,8.04-50.45,0
								c-6.97-4.02-10.45-9.29-10.45-14.56v75.62l0,0c0,5.27,3.48,10.54,10.45,14.56c13.93,8.04,36.52,8.04,50.45,0
								C535.01,334.13,538.49,328.86,538.49,323.58z"/>
							<linearGradient id="SVGID_22_" gradientUnits="userSpaceOnUse" x1="502.8215" y1="214.876" x2="502.8215" y2="285.4952">
								<stop  offset="1.694780e-03" style="stop-color:#00D4C8"/>
								<stop  offset="1" style="stop-color:#00D2C7;stop-opacity:0"/>
							</linearGradient>
							<ellipse class="st39" cx="502.82" cy="247.96" rx="35.67" ry="20.59"/>
						</g>
					</g>
					<path class="st2" d="M472.49,290.98L472.49,290.98c-1.5-0.87-2.43-2.47-2.43-4.21v-21.85c0-0.72,0.78-1.17,1.41-0.81l0,0
						c1.54,0.89,2.49,2.54,2.49,4.32v21.7C473.96,290.88,473.14,291.35,472.49,290.98z"/>
					<path class="st2" d="M472.49,305.73L472.49,305.73c-1.5-0.87-2.43-2.47-2.43-4.21v-4.66c0-0.72,0.78-1.17,1.41-0.81l0,0
						c1.54,0.89,2.49,2.54,2.49,4.32v4.51C473.96,305.64,473.14,306.11,472.49,305.73z"/>
				</g>
				<g>
					<path class="st13" d="M340.86,259.77v-31.92h-71.34v31.92l0,0c0,5.27,3.48,10.54,10.45,14.56c13.93,8.04,36.52,8.04,50.45,0
						C337.38,270.31,340.86,265.04,340.86,259.77z"/>
					<linearGradient id="SVGID_23_" gradientUnits="userSpaceOnUse" x1="299.8687" y1="254.1076" x2="353.4992" y2="254.1076">
						<stop  offset="0" style="stop-color:#FFFFFF;stop-opacity:0"/>
						<stop  offset="1" style="stop-color:#662D8D"/>
					</linearGradient>
					<path class="st40" d="M340.86,259.77v-31.92h-71.34v31.92l0,0c0,5.27,3.48,10.54,10.45,14.56c13.93,8.04,36.52,8.04,50.45,0
						C337.38,270.31,340.86,265.04,340.86,259.77z"/>
					<ellipse class="st2" cx="305.19" cy="227.85" rx="35.67" ry="20.59"/>
					<g>
						<linearGradient id="SVGID_24_" gradientUnits="userSpaceOnUse" x1="305.1902" y1="190.7672" x2="305.1902" y2="261.3864">
							<stop  offset="1.694780e-03" style="stop-color:#00D4C8"/>
							<stop  offset="1" style="stop-color:#00D2C7;stop-opacity:0"/>
						</linearGradient>
						<ellipse class="st41" cx="305.19" cy="223.85" rx="35.67" ry="20.59"/>
						<g>
							<circle class="st42" cx="328.42" cy="166.47" r="2.38"/>
							<circle class="st42" cx="326.04" cy="217.65" r="2.38"/>
							<path class="st42" d="M287.64,199.36c0,1.31-1.06,2.38-2.38,2.38c-1.31,0-2.38-1.06-2.38-2.38c0-1.31,1.06-2.38,2.38-2.38
								C286.57,196.99,287.64,198.05,287.64,199.36z"/>
							<path class="st42" d="M325.16,156.42c0,0.83-0.67,1.5-1.5,1.5s-1.5-0.67-1.5-1.5s0.67-1.5,1.5-1.5
								S325.16,155.59,325.16,156.42z"/>
							<path class="st42" d="M318.47,223.85c0,0.83-0.67,1.5-1.5,1.5s-1.5-0.67-1.5-1.5s0.67-1.5,1.5-1.5
								S318.47,223.03,318.47,223.85z"/>
							<path class="st42" d="M286.49,154.27c0,0.83-0.67,1.5-1.5,1.5s-1.5-0.67-1.5-1.5s0.67-1.5,1.5-1.5
								S286.49,153.44,286.49,154.27z"/>
							<path class="st42" d="M336.3,198.29c0,0.83-0.67,1.5-1.5,1.5s-1.5-0.67-1.5-1.5s0.67-1.5,1.5-1.5S336.3,197.46,336.3,198.29z
								"/>
							<path class="st42" d="M282.83,220.02c0,0.83-0.67,1.5-1.5,1.5s-1.5-0.67-1.5-1.5s0.67-1.5,1.5-1.5
								S282.83,219.2,282.83,220.02z"/>
							<g>
								<path class="st42" d="M327.57,192.54c0,0.11,0,0.23-0.01,0.34c-0.01,1.41-0.14,2.71-0.37,3.91
									c-0.14,0.73-0.32,1.42-0.54,2.07c-0.91,2.77-2.47,4.85-4.49,6.13l0.01,0.01l-0.18,0.11c-0.11,0.05-0.22,0.12-0.34,0.19
									l-5.51,3.2l-1.24-2.14c-2.15-0.3-4.48-1.1-6.93-2.52c-10.83-6.24-19.59-21.45-19.59-33.94c0-1.27,0.1-2.45,0.28-3.55
									c0.11-0.7,0.26-1.38,0.43-2.01c0.15-0.52,0.32-1.02,0.5-1.5l-1.3-2.23l5.57-3.21c0.19-0.11,0.37-0.22,0.56-0.32l0.3-0.18
									l0.01,0.03c2.26-1.09,5.01-1.31,8.07-0.51c0.63,0.17,1.29,0.37,1.96,0.63c1.05,0.4,2.12,0.91,3.21,1.54
									c0.08,0.04,0.17,0.1,0.25,0.15c0.48,0.28,0.96,0.59,1.45,0.92c0.94,0.62,1.87,1.32,2.77,2.09c0.4,0.34,0.81,0.69,1.2,1.06
									c0.8,0.73,1.57,1.52,2.33,2.34c0.34,0.37,0.69,0.77,1.02,1.17c0.7,0.81,1.36,1.65,2.01,2.52c0.29,0.41,0.59,0.83,0.87,1.25
									c0.61,0.87,1.18,1.78,1.72,2.7c0.26,0.44,0.52,0.88,0.76,1.32c0.52,0.94,1.01,1.89,1.45,2.85c0.22,0.47,0.43,0.92,0.62,1.39
									c0.43,1.01,0.81,2.01,1.16,3.02c0.18,0.5,0.33,0.99,0.48,1.49c0.33,1.07,0.61,2.15,0.81,3.21c0.12,0.52,0.22,1.06,0.3,1.58
									c0.19,1.17,0.32,2.33,0.37,3.47C327.55,191.61,327.57,192.08,327.57,192.54z"/>
								<linearGradient id="SVGID_25_" gradientUnits="userSpaceOnUse" x1="302.7317" y1="171.138" x2="323.6269" y2="211.3659">
									<stop  offset="0" style="stop-color:#FFFFFF;stop-opacity:0"/>
									<stop  offset="1" style="stop-color:#662D8D"/>
								</linearGradient>
								<path class="st43" d="M327.57,192.54c0,0.11,0,0.23-0.01,0.34c-0.01,1.41-0.14,2.71-0.37,3.91
									c-0.14,0.73-0.32,1.42-0.54,2.07c-0.91,2.77-2.47,4.85-4.49,6.13l0.01,0.01l-0.18,0.11c-0.11,0.05-0.22,0.12-0.34,0.19
									l-5.51,3.2l-1.24-2.14c-2.15-0.3-4.48-1.1-6.93-2.52c-10.83-6.24-19.59-21.45-19.59-33.94c0-1.27,0.1-2.45,0.28-3.55
									c0.11-0.7,0.26-1.38,0.43-2.01c0.15-0.52,0.32-1.02,0.5-1.5l-1.3-2.23l5.57-3.21c0.19-0.11,0.37-0.22,0.56-0.32l0.3-0.18
									l0.01,0.03c2.26-1.09,5.01-1.31,8.07-0.51c0.63,0.17,1.29,0.37,1.96,0.63c1.05,0.4,2.12,0.91,3.21,1.54
									c0.08,0.04,0.17,0.1,0.25,0.15c0.48,0.28,0.96,0.59,1.45,0.92c0.94,0.62,1.87,1.32,2.77,2.09c0.4,0.34,0.81,0.69,1.2,1.06
									c0.8,0.73,1.57,1.52,2.33,2.34c0.34,0.37,0.69,0.77,1.02,1.17c0.7,0.81,1.36,1.65,2.01,2.52c0.29,0.41,0.59,0.83,0.87,1.25
									c0.61,0.87,1.18,1.78,1.72,2.7c0.26,0.44,0.52,0.88,0.76,1.32c0.52,0.94,1.01,1.89,1.45,2.85c0.22,0.47,0.43,0.92,0.62,1.39
									c0.43,1.01,0.81,2.01,1.16,3.02c0.18,0.5,0.33,0.99,0.48,1.49c0.33,1.07,0.61,2.15,0.81,3.21c0.12,0.52,0.22,1.06,0.3,1.58
									c0.19,1.17,0.32,2.33,0.37,3.47C327.55,191.61,327.57,192.08,327.57,192.54z"/>
								
									<ellipse transform="matrix(0.866 -0.5 0.5 0.866 -51.7001 175.9157)" class="st44" cx="302.41" cy="184.43" rx="16" ry="27.71"/>
								
									<ellipse transform="matrix(0.866 -0.5 0.5 0.866 -51.7001 175.9161)" class="st45" cx="302.41" cy="184.43" rx="12.62" ry="21.85"/>
								
									<ellipse transform="matrix(0.866 -0.5 0.5 0.866 -51.7001 175.9158)" class="st45" cx="302.41" cy="184.43" rx="8.8" ry="15.24"/>
								<path class="st45" d="M308.79,188.11c0,4.07-2.85,5.71-6.38,3.68c-3.52-2.03-6.38-6.98-6.38-11.04s2.85-5.71,6.38-3.68
									C305.93,179.1,308.79,184.05,308.79,188.11z"/>
								<path class="st2" d="M304.92,185.88c0,1.6-1.12,2.25-2.51,1.45c-1.39-0.8-2.51-2.74-2.51-4.34c0-1.6,1.12-2.25,2.51-1.45
									C303.79,182.33,304.92,184.28,304.92,185.88z"/>
							</g>
						</g>
						<g>
							<linearGradient id="SVGID_26_" gradientUnits="userSpaceOnUse" x1="247.3178" y1="196.3398" x2="310.5619" y2="196.3398">
								<stop  offset="1.694780e-03" style="stop-color:#00D4C8"/>
								<stop  offset="1" style="stop-color:#00D2C7;stop-opacity:0"/>
							</linearGradient>
							<path class="st46" d="M340.86,223.85v-75.62c0,5.27-3.48,10.54-10.45,14.56c-13.93,8.04-36.52,8.04-50.45,0
								c-6.97-4.02-10.45-9.29-10.45-14.56v75.62l0,0c0,5.27,3.48,10.54,10.45,14.56c13.93,8.04,36.52,8.04,50.45,0
								C337.38,234.39,340.86,229.12,340.86,223.85z"/>
							<linearGradient id="SVGID_27_" gradientUnits="userSpaceOnUse" x1="355.4564" y1="196.3398" x2="311.0636" y2="196.3398">
								<stop  offset="1.694780e-03" style="stop-color:#00D4C8"/>
								<stop  offset="1" style="stop-color:#00D2C7;stop-opacity:0"/>
							</linearGradient>
							<path class="st47" d="M340.86,223.85v-75.62c0,5.27-3.48,10.54-10.45,14.56c-13.93,8.04-36.52,8.04-50.45,0
								c-6.97-4.02-10.45-9.29-10.45-14.56v75.62l0,0c0,5.27,3.48,10.54,10.45,14.56c13.93,8.04,36.52,8.04,50.45,0
								C337.38,234.39,340.86,229.12,340.86,223.85z"/>
							<linearGradient id="SVGID_28_" gradientUnits="userSpaceOnUse" x1="305.1902" y1="115.1443" x2="305.1902" y2="185.7635">
								<stop  offset="1.694780e-03" style="stop-color:#00D4C8"/>
								<stop  offset="1" style="stop-color:#00D2C7;stop-opacity:0"/>
							</linearGradient>
							<ellipse class="st48" cx="305.19" cy="148.23" rx="35.67" ry="20.59"/>
						</g>
					</g>
					<path class="st2" d="M274.86,191.24L274.86,191.24c-1.5-0.87-2.43-2.47-2.43-4.21v-21.85c0-0.72,0.78-1.17,1.4-0.81l0,0
						c1.54,0.89,2.49,2.54,2.49,4.32v21.7C276.33,191.15,275.51,191.62,274.86,191.24z"/>
					<path class="st2" d="M274.86,206L274.86,206c-1.5-0.87-2.43-2.47-2.43-4.21v-4.66c0-0.72,0.78-1.17,1.4-0.81l0,0
						c1.54,0.89,2.49,2.54,2.49,4.32v4.51C276.33,205.9,275.51,206.37,274.86,206z"/>
				</g>
				<g>
					<path class="st49" d="M414,314.14c0,0-5.89,6.26-6.27,12.49l1.15,2.45l2.37-1.73c0,0,1.68-8.18,4.74-10.63L414,314.14z"/>
					<path class="st50" d="M427.82,387.51c0,0,0.41,3.87-1.49,3.67c-2.21-0.23-9.05-4.84-7.53-6.29c1.52-1.45,7.23,1.18,7.23,1.18
						L427.82,387.51z"/>
					<path class="st50" d="M415.66,393.24c0,0,0.41,3.87-1.49,3.67c-2.21-0.23-9.05-4.84-7.53-6.29c1.52-1.45,7.23,1.18,7.23,1.18
						L415.66,393.24z"/>
					<rect x="417.4" y="296.64" class="st51" width="4.06" height="5.73"/>
					<path class="st49" d="M413.07,327.55c0,0-6.53,14.91-1.63,66.06c0.03,0.26,0.17,0.5,0.4,0.63c0.86,0.49,3.03,1.37,4.15-1.52
						c0.03-0.08,0.05-0.16,0.05-0.24l4.25-53.59c0.03-0.86,0.48-0.9,0.57-0.04l2.61,48.99c0.02,0.37,0.25,0.69,0.6,0.82
						c1.14,0.43,3.65,0.93,4.12-2.67c0,0,4.44-53-0.74-60.18L413.07,327.55z"/>
					<path class="st50" d="M427.46,324.18c-0.12,0.22-0.26,0.43-0.43,0.61c-1.49,1.52-5.49,4.27-13.47,1.41
						c-0.18-0.06-0.34-0.16-0.48-0.28v1.64c0.14,0.12,0.3,0.22,0.48,0.28c7.98,2.85,11.99,0.11,13.47-1.41
						c0.18-0.18,0.32-0.39,0.43-0.61V324.18z"/>
					<path class="st2" d="M443.69,275.57c0,0,0-3.47,0.48-3.54c0.33-0.05,0.32,1.1,0.32,1.1s0.39-2.58,0.95-2.43
						c0.2,0.05-0.05,1.63-0.05,1.63s0.24-0.91,1.68,0c0.45,0.28,0.34,1.13-1.37,3.82L443.69,275.57z"/>
					<path class="st52" d="M426.6,298.84c0,0,12.15-1.05,16.95-23.54c0,0,1.29-0.24,2.33,0.82c0,0-0.71,27.04-17.53,32.23
						L426.6,298.84z"/>
					<path class="st53" d="M417.4,300.43l4.06-0.92l6.4-0.83c1.57-0.21,2.7,2.06,2.81,4.49c0.21,4.62-2.88,20.32-2.88,20.32
						c-0.04,0.63-0.3,1.24-0.74,1.69c-1.48,1.52-5.48,4.29-13.49,1.42c-0.51-0.18-0.88-0.63-0.95-1.16l-2.98-18.57
						c-0.16-0.97,0.26-1.94,1.06-2.5L417.4,300.43z"/>
					<path class="st2" d="M412.34,289.43c0,0,0.49,5.55,2.78,8.39c2.29,2.84,6.73-1.85,7.39-3.22c0.66-1.37,1.73-9.94-5.15-9.94
						C412.9,284.66,412.12,287.44,412.34,289.43z"/>
					<path class="st49" d="M418.98,292.89c0,0-2.31-1.64-3.17-4.43c0,0-0.51-0.3-3.33,2.06c0,0-3.18-0.01-1.7-3.36
						c1.48-3.35,7.59-7.59,10.53-4.24c0,0,5.6-0.93,4.52,6.32c-1.43,9.55-5.9,7.98-7.02,5.8
						C417.7,292.89,418.98,292.89,418.98,292.89z"/>
					<path class="st2" d="M417.54,291.76c0,0,0.93-1.83,1.69-0.74c0.76,1.09-0.16,3.29-1.83,3.58L417.54,291.76z"/>
					<polygon class="st49" points="392.21,298.78 400.83,307.37 409.48,302.23 400.83,293.37 					"/>
					<polyline class="st54" points="400.1,303.37 400.1,301.45 401.91,301.45 401.91,297.39 					"/>
					<polyline class="st54" points="400.2,298.52 401.81,296.9 403.63,298.72 					"/>
					<path class="st2" d="M395.95,302.5c-0.03-0.05,0.68-0.78,1.21-1.33c0.16-0.16,0.42,0,0.36,0.21l-0.36,1.27
						c0,0,1.83-0.51,0.8,2.51l-1.78,0.48L395.95,302.5z"/>
					<path class="st52" d="M398.12,305.12c0,0,9.45,16.97,3.83,18.04c-5.62,1.06-5.89-17.48-5.89-17.48S396.61,304.9,398.12,305.12z
						"/>
					<path class="st52" d="M410.67,304.37c0,0-2.54,1.27-6.06,6.29c-4.79,6.82-6.99,10.89-2.54,12.39c1.13,0.38,8.9-7.77,8.9-7.77
						S414.13,308.53,410.67,304.37z"/>
					<path class="st52" d="M416.57,300.91l0.82-1.4c0,0,1.39-0.85,4.06-0.91l0.97,0.83C422.42,299.43,422.22,300.39,416.57,300.91z"
						/>
				</g>
				<g>
					<polygon class="st13" points="333.71,284.13 303.01,353.37 300.22,351.71 300.22,311.48 					"/>
					<polygon class="st13" points="336.5,285.79 336.5,334.04 303.01,353.37 303.01,313.14 					"/>
					<linearGradient id="SVGID_29_" gradientUnits="userSpaceOnUse" x1="303.4175" y1="286.9049" x2="341.3021" y2="362.674">
						<stop  offset="0" style="stop-color:#FFFFFF;stop-opacity:0"/>
						<stop  offset="1" style="stop-color:#662D8D"/>
					</linearGradient>
					<polygon class="st55" points="336.5,285.79 336.5,334.04 303.01,353.37 303.01,313.14 					"/>
				</g>
				<g>
					<polygon class="st13" points="387.63,315.22 356.93,384.45 354.14,382.8 354.14,342.56 					"/>
					<polygon class="st13" points="390.42,316.88 390.42,365.12 356.93,384.45 356.93,344.22 					"/>
					<linearGradient id="SVGID_30_" gradientUnits="userSpaceOnUse" x1="329.2097" y1="350.6651" x2="432.1603" y2="350.6651">
						<stop  offset="0" style="stop-color:#FFFFFF;stop-opacity:0"/>
						<stop  offset="1" style="stop-color:#662D8D"/>
					</linearGradient>
					<polygon class="st56" points="390.42,316.88 390.42,365.12 356.93,384.45 356.93,344.22 					"/>
				</g>
				<polygon class="st13" points="356.93,346.91 300.22,314.17 390.42,316.88 390.42,319.57 				"/>
				<linearGradient id="SVGID_31_" gradientUnits="userSpaceOnUse" x1="329.2097" y1="330.5425" x2="432.1597" y2="330.5425">
					<stop  offset="0" style="stop-color:#FFFFFF;stop-opacity:0"/>
					<stop  offset="1" style="stop-color:#662D8D"/>
				</linearGradient>
				<polygon class="st57" points="356.93,346.91 300.22,314.17 390.42,316.88 390.42,319.57 				"/>
				<polygon class="st2" points="356.93,344.22 300.22,311.48 333.71,284.13 390.42,316.88 				"/>
				<polygon class="st49" points="356.16,339.72 306.82,311.21 334.48,288.63 383.82,317.13 				"/>
				<linearGradient id="SVGID_32_" gradientUnits="userSpaceOnUse" x1="341.427" y1="291.0538" x2="338.7791" y2="317.1542">
					<stop  offset="3.946110e-03" style="stop-color:#FFFFFF;stop-opacity:0"/>
					<stop  offset="1" style="stop-color:#FDC870"/>
				</linearGradient>
				<path class="st58" d="M343.69,314.75l-18.81-10.87c-0.43-0.25-0.48-0.86-0.09-1.18l9.91-8.09c0.53-0.43,1.27-0.49,1.86-0.15
					l18.55,10.72c0.56,0.32,0.62,1.11,0.12,1.51l-9.68,7.91C345.02,315.03,344.28,315.09,343.69,314.75z"/>
				<linearGradient id="SVGID_33_" gradientUnits="userSpaceOnUse" x1="332.4995" y1="307.0551" x2="325.8486" y2="319.6689">
					<stop  offset="0" style="stop-color:#BA68C8;stop-opacity:0"/>
					<stop  offset="1" style="stop-color:#BA68C8"/>
				</linearGradient>
				<path class="st59" d="M335.26,321.49l-18.81-10.87c-0.43-0.25-0.48-0.86-0.09-1.18l4.9-3.91c0.53-0.43,1.27-0.49,1.86-0.15
					l18.55,10.72c0.56,0.32,0.62,1.11,0.12,1.51l-4.67,3.72C336.59,321.77,335.85,321.83,335.26,321.49z"/>
				<g>
					<linearGradient id="SVGID_34_" gradientUnits="userSpaceOnUse" x1="348.1159" y1="316.8681" x2="341.9267" y2="328.6063">
						<stop  offset="1.694780e-03" style="stop-color:#00D4C8"/>
						<stop  offset="1" style="stop-color:#00D2C7;stop-opacity:0"/>
					</linearGradient>
					<path class="st60" d="M344.77,327.18l-6.13-3.51c-0.43-0.25-0.48-0.86-0.09-1.18l4.9-3.91c0.53-0.43,1.27-0.49,1.86-0.15
						l5.87,3.36c0.56,0.32,0.62,1.11,0.12,1.51l-4.67,3.72C346.1,327.47,345.36,327.53,344.77,327.18z"/>
					<linearGradient id="SVGID_35_" gradientUnits="userSpaceOnUse" x1="357.8813" y1="316.6283" x2="351.8959" y2="336.0811">
						<stop  offset="1.694780e-03" style="stop-color:#EF5350"/>
						<stop  offset="1" style="stop-color:#EF5350;stop-opacity:0"/>
					</linearGradient>
					<path class="st61" d="M354.37,332.61l-6.54-3.87c-0.43-0.25-0.48-0.86-0.09-1.18l4.9-3.91c0.53-0.43,1.27-0.49,1.86-0.15
						l6.28,3.72c0.56,0.32,0.62,1.11,0.12,1.51l-4.67,3.72C355.7,332.89,354.96,332.95,354.37,332.61z"/>
				</g>
				<polygon class="st13" points="356.93,346.91 356.93,344.22 300.22,311.48 300.22,314.17 				"/>
				<path class="st62" d="M328.58,303.3c0.05-0.1,9.13-0.73,9.13-0.73l1.76,3.17h10.94l-2.37-1.13"/>
				<line class="st62" x1="350.4" y1="305.74" x2="350.4" y2="307.62"/>
				<ellipse class="st44" cx="360.55" cy="309.5" rx="1.14" ry="0.66"/>
				<ellipse class="st63" cx="363.85" cy="311.38" rx="1.14" ry="0.66"/>
				<path class="st44" d="M367.95,313.73c-0.45,0.26-1.17,0.26-1.61,0c-0.45-0.26-0.45-0.67,0-0.93c0.44-0.26,1.17-0.26,1.61,0
					C368.39,313.05,368.39,313.47,367.95,313.73z"/>
				<path class="st44" d="M371.24,315.61c-0.45,0.26-1.17,0.26-1.61,0c-0.45-0.26-0.45-0.67,0-0.93c0.45-0.26,1.17-0.26,1.61,0
					C371.69,314.93,371.69,315.35,371.24,315.61z"/>
				<path class="st44" d="M374.54,317.48c-0.45,0.26-1.17,0.26-1.61,0c-0.45-0.26-0.45-0.67,0-0.93c0.45-0.26,1.17-0.26,1.61,0
					C374.98,316.81,374.98,317.23,374.54,317.48z"/>
				<path class="st44" d="M358.65,312.03c-0.45,0.26-1.17,0.26-1.61,0c-0.45-0.26-0.45-0.67,0-0.93c0.45-0.26,1.17-0.26,1.61,0
					C359.09,311.35,359.09,311.77,358.65,312.03z"/>
				<path class="st44" d="M361.94,313.91c-0.45,0.26-1.17,0.26-1.61,0c-0.45-0.26-0.45-0.67,0-0.93c0.45-0.26,1.17-0.26,1.61,0
					C362.39,313.23,362.39,313.65,361.94,313.91z"/>
				<path class="st44" d="M365.24,315.79c-0.45,0.26-1.17,0.26-1.61,0c-0.45-0.26-0.45-0.67,0-0.93c0.45-0.26,1.17-0.26,1.61,0
					C365.68,315.11,365.68,315.53,365.24,315.79z"/>
				<path class="st63" d="M368.53,317.67c-0.44,0.26-1.17,0.26-1.61,0c-0.44-0.26-0.44-0.67,0-0.93c0.45-0.26,1.17-0.26,1.61,0
					C368.98,316.99,368.98,317.41,368.53,317.67z"/>
				<path class="st63" d="M371.83,319.54c-0.45,0.26-1.17,0.26-1.61,0c-0.45-0.26-0.45-0.67,0-0.93c0.45-0.26,1.17-0.26,1.61,0
					C372.27,318.87,372.27,319.29,371.83,319.54z"/>
				<path class="st63" d="M355.94,314.09c-0.45,0.26-1.17,0.26-1.61,0c-0.45-0.26-0.45-0.67,0-0.93c0.45-0.26,1.17-0.26,1.61,0
					C356.38,313.41,356.38,313.83,355.94,314.09z"/>
				<path class="st44" d="M359.23,315.97c-0.45,0.26-1.17,0.26-1.61,0c-0.45-0.26-0.45-0.67,0-0.93c0.44-0.26,1.17-0.26,1.61,0
					C359.68,315.29,359.68,315.71,359.23,315.97z"/>
				<ellipse class="st63" cx="361.72" cy="317.38" rx="1.14" ry="0.66"/>
				<path class="st44" d="M365.82,319.73c-0.45,0.26-1.17,0.26-1.61,0c-0.45-0.26-0.45-0.67,0-0.93c0.45-0.26,1.17-0.26,1.61,0
					C366.27,319.05,366.27,319.47,365.82,319.73z"/>
				<path class="st44" d="M369.12,321.6c-0.44,0.26-1.17,0.26-1.61,0c-0.44-0.26-0.44-0.67,0-0.93c0.45-0.26,1.17-0.26,1.61,0
					C369.56,320.93,369.56,321.35,369.12,321.6z"/>
				<path class="st44" d="M353.23,316.15c-0.45,0.26-1.17,0.26-1.61,0c-0.45-0.26-0.45-0.67,0-0.93c0.45-0.26,1.17-0.26,1.61,0
					C353.67,315.47,353.67,315.89,353.23,316.15z"/>
				<path class="st44" d="M356.52,318.03c-0.45,0.26-1.17,0.26-1.61,0c-0.45-0.26-0.45-0.67,0-0.93c0.45-0.26,1.17-0.26,1.61,0
					C356.97,317.35,356.97,317.77,356.52,318.03z"/>
				<path class="st44" d="M359.82,319.91c-0.44,0.26-1.17,0.26-1.61,0c-0.45-0.26-0.45-0.67,0-0.93c0.44-0.26,1.17-0.26,1.61,0
					C360.26,319.23,360.26,319.65,359.82,319.91z"/>
				<path class="st44" d="M363.11,321.79c-0.45,0.26-1.17,0.26-1.61,0c-0.45-0.26-0.45-0.67,0-0.93c0.45-0.26,1.17-0.26,1.61,0
					C363.56,321.11,363.56,321.53,363.11,321.79z"/>
				<path class="st63" d="M366.41,323.66c-0.45,0.26-1.17,0.26-1.61,0c-0.45-0.26-0.45-0.67,0-0.93c0.45-0.26,1.17-0.26,1.61,0
					C366.85,322.99,366.85,323.41,366.41,323.66z"/>
				<ellipse class="st63" cx="349.71" cy="317.74" rx="1.14" ry="0.66"/>
				<ellipse class="st44" cx="353" cy="319.62" rx="1.14" ry="0.66"/>
				<path class="st63" d="M357.11,321.97c-0.45,0.26-1.17,0.26-1.61,0c-0.45-0.26-0.45-0.67,0-0.93c0.45-0.26,1.17-0.26,1.61,0
					C357.55,321.29,357.55,321.71,357.11,321.97z"/>
				<ellipse class="st44" cx="359.6" cy="323.38" rx="1.14" ry="0.66"/>
				<path class="st63" d="M363.7,325.72c-0.45,0.26-1.17,0.26-1.61,0c-0.45-0.26-0.45-0.67,0-0.93c0.45-0.26,1.17-0.26,1.61,0
					C364.14,325.05,364.14,325.47,363.7,325.72z"/>
				<g>
					<line class="st64" x1="321.98" y1="307.39" x2="338.68" y2="317.16"/>
					<line class="st64" x1="320.76" y1="308.36" x2="337.46" y2="318.13"/>
					<line class="st64" x1="319.54" y1="309.33" x2="336.24" y2="319.1"/>
				</g>
				<g>
					<path class="st49" d="M313.41,308.38c0,0,6.21,6.61,6.62,13.18l-1.21,2.59l-2.5-1.83c0,0-1.78-8.64-5-11.22L313.41,308.38z"/>
					<path class="st50" d="M298.82,385.82c0,0-0.43,4.09,1.57,3.88c2.33-0.25,9.55-5.11,7.94-6.64c-1.61-1.53-7.63,1.24-7.63,1.24
						L298.82,385.82z"/>
					<path class="st50" d="M311.66,391.87c0,0-0.43,4.09,1.57,3.88c2.33-0.25,9.55-5.11,7.94-6.64c-1.61-1.53-7.63,1.24-7.63,1.24
						L311.66,391.87z"/>
					
						<rect x="305.54" y="289.91" transform="matrix(-1 -1.224647e-16 1.224647e-16 -1 615.3685 585.8743)" class="st2" width="4.28" height="6.05"/>
					<path class="st49" d="M314.39,322.54c0,0,6.89,15.73,1.72,69.73c-0.03,0.28-0.18,0.53-0.42,0.67c-0.91,0.52-3.19,1.45-4.38-1.6
						c-0.03-0.08-0.05-0.17-0.06-0.26l-4.49-56.56c-0.04-0.91-0.51-0.95-0.6-0.04l-2.76,51.71c-0.02,0.39-0.27,0.73-0.63,0.87
						c-1.21,0.45-3.85,0.98-4.34-2.82c0,0-4.68-55.94,0.79-63.52L314.39,322.54z"/>
					<path class="st50" d="M299.21,318.97c0.12,0.23,0.27,0.45,0.46,0.64c1.57,1.61,5.8,4.5,14.22,1.49c0.19-0.07,0.36-0.17,0.5-0.3
						v1.73c-0.15,0.13-0.31,0.23-0.5,0.3c-8.42,3.01-12.65,0.12-14.22-1.49c-0.19-0.19-0.33-0.41-0.46-0.64V318.97z"/>
					<path class="st53" d="M309.83,293.91l-4.28-0.97l-6.76-0.88c-1.65-0.22-2.84,2.18-2.96,4.74c-0.23,4.87,3.04,21.45,3.04,21.45
						c0.04,0.67,0.32,1.31,0.79,1.79c1.56,1.6,5.79,4.52,14.23,1.5c0.53-0.19,0.92-0.66,1.01-1.23l3.15-19.6
						c0.16-1.02-0.27-2.05-1.12-2.64L309.83,293.91z"/>
					<path class="st2" d="M315.16,282.3c0,0-0.52,5.85-2.94,8.85c-2.42,3-7.11-1.95-7.8-3.4c-0.7-1.44-1.83-10.49,5.44-10.49
						C314.57,277.27,315.4,280.2,315.16,282.3z"/>
					<path class="st49" d="M308.15,285.95c0,0,2.44-1.73,3.35-4.67c0,0,0.54-0.32,3.51,2.17c0,0,3.36-0.01,1.8-3.55
						c-1.56-3.54-8.01-8.01-11.11-4.48c0,0-5.91-0.98-4.77,6.67c1.51,10.08,6.23,8.42,7.41,6.12
						C309.5,285.95,308.15,285.95,308.15,285.95z"/>
					<path class="st2" d="M309.68,284.76c0,0-0.98-1.93-1.79-0.78c-0.81,1.15,0.17,3.47,1.93,3.77L309.68,284.76z"/>
					<path class="st2" d="M345.09,319.23c0.06-0.02,0.64,0.88,1.07,1.56c0.12,0.2-0.1,0.43-0.3,0.32l-1.22-0.68
						c0,0,0.08,2.01-2.78,0.22l-0.07-1.95L345.09,319.23z"/>
					<path class="st52" d="M342.4,318.64c0,0-17.82-10.13-19-4.21c-1.18,5.92,18.39,6.38,18.39,6.38S342.62,320.24,342.4,318.64z"/>
					<path class="st52" d="M316.92,298.07c0,0,2.68,1.34,6.4,6.64c5.05,7.2,7.38,11.49,2.68,13.08c-1.19,0.4-9.39-8.2-9.39-8.2
						S313.28,302.46,316.92,298.07z"/>
					<path class="st52" d="M310.69,294.42l-0.87-1.48c0,0-1.47-0.9-4.28-0.96l-1.02,0.87C304.52,292.85,304.74,293.87,310.69,294.42
						z"/>
				</g>
			</g>
			
				<linearGradient id="SVGID_36_" gradientUnits="userSpaceOnUse" x1="-776.9191" y1="307.3884" x2="-776.9191" y2="216.6862" gradientTransform="matrix(-0.999 -0.0439 0.0439 -0.999 -268.9176 438.0486)">
				<stop  offset="1.860120e-03" style="stop-color:#AC24B9"/>
				<stop  offset="1" style="stop-color:#2E2142"/>
			</linearGradient>
			<path class="st65" d="M503.54,185.91c3.53,9.57,16.66,21.85,27.45,17.25c5.34-2.27,8.24-9.75,4.67-14.32
				c-2.54-3.25-7.1-4.05-10.38-6.55c-2.93-2.23-4.65-5.65-6.88-8.59c-2.22-2.94-5.51-5.63-9.17-5.22
				c-7.67,0.86-7.69,11.44-5.88,16.86C503.4,185.54,503.47,185.73,503.54,185.91z"/>
		</g>
	</g>
</g>
<g id="Designed_by_Freepik">
</g>
</svg>
